<?xml version="1.0" encoding="utf-8"?>
<!-- Generator: Adobe Illustrator 16.0.0, SVG Export Plug-In . SVG Version: 6.00 Build 0)  -->
<!DOCTYPE svg PUBLIC "-//W3C//DTD SVG 1.1//EN" "http://www.w3.org/Graphics/SVG/1.1/DTD/svg11.dtd">
<svg version="1.1" id="Layer_2" xmlns="http://www.w3.org/2000/svg" xmlns:xlink="http://www.w3.org/1999/xlink" x="0px" y="0px"
	 width="1000px" height="1000px" viewBox="0 0 1000 1000" enable-background="new 0 0 1000 1000" xml:space="preserve">
<g>
	<g>
		<path fill="#FDF7F1" d="M499.997,992.141c-131.456,0-255.044-51.189-347.996-144.145c-92.953-92.951-144.144-216.541-144.144-348
			c0-131.456,51.19-255.04,144.144-347.994C244.953,59.051,368.544,7.859,499.997,7.859c131.455,0,255.044,51.192,347.997,144.144
			c92.957,92.954,144.148,216.542,144.148,347.994c0,131.458-51.191,255.046-144.148,348
			C755.041,940.951,631.456,992.141,499.997,992.141z M499.997,37.582c-123.518,0-239.641,48.1-326.981,135.44
			C85.676,260.359,37.578,376.483,37.578,499.998c0,123.52,48.098,239.645,135.438,326.985
			c87.338,87.336,203.463,135.439,326.981,135.439c123.515,0,239.641-48.104,326.981-135.439
			c87.342-87.34,135.444-203.467,135.444-326.985c0-123.515-48.103-239.635-135.444-326.976
			C739.638,85.68,623.516,37.582,499.997,37.582z"/>
	</g>
	<g>
		<path fill="#FDF7F1" d="M270.482,590.744c0-9.176,7.438-16.605,16.604-16.605c9.175,0,16.604,7.43,16.604,16.605v291.672
			c54.268,27.943,115.249,44.641,179.879,47.1V70.487c-64.63,2.458-125.611,19.155-179.879,47.089v289.602
			c0,9.173-7.429,16.602-16.604,16.602c-9.166,0-16.604-7.429-16.604-16.602V136.608C150.188,212.804,70.312,347.063,70.312,499.997
			s79.878,287.195,200.171,363.398V590.744z"/>
		<path fill="#FDF7F1" d="M713.568,516.602c-9.175,0-16.604-7.432-16.604-16.605c0-9.167,7.43-16.604,16.604-16.604h216.117
			C921.168,259.201,740.974,79.005,516.774,70.487v859.029c224.199-8.518,404.394-188.717,412.911-412.914H713.568z"/>
	</g>
</g>
</svg>
