<?xml version="1.0" encoding="utf-8"?>
<!-- Generator: Adobe Illustrator 16.0.0, SVG Export Plug-In . SVG Version: 6.00 Build 0)  -->
<!DOCTYPE svg PUBLIC "-//W3C//DTD SVG 1.1 Tiny//EN" "http://www.w3.org/Graphics/SVG/1.1/DTD/svg11-tiny.dtd">
<svg version="1.1" baseProfile="tiny" id="Layer_2" xmlns="http://www.w3.org/2000/svg" xmlns:xlink="http://www.w3.org/1999/xlink"
	 x="0px" y="0px" width="1000px" height="1000px" viewBox="0 0 1000 1000" xml:space="preserve">
<g>
	<g>
		<path fill="#FDF7F1" d="M499.999,781.486c-75.188,0-145.876-29.279-199.041-82.445c-53.166-53.165-82.445-123.854-82.445-199.043
			c0-75.187,29.279-145.873,82.445-199.039c53.165-53.165,123.854-82.445,199.041-82.445s145.875,29.28,199.041,82.445
			c53.167,53.166,82.447,123.853,82.447,199.039c0,75.189-29.28,145.877-82.447,199.043
			C645.874,752.207,575.187,781.486,499.999,781.486z M499.999,235.514c-70.647,0-137.065,27.512-187.021,77.467
			c-49.955,49.954-77.466,116.372-77.466,187.018c0,70.648,27.511,137.067,77.466,187.022
			c49.954,49.954,116.373,77.466,187.021,77.466c70.646,0,137.065-27.512,187.021-77.466
			c49.956-49.955,77.468-116.374,77.468-187.022c0-70.646-27.512-137.062-77.468-187.018S570.646,235.514,499.999,235.514z"/>
	</g>
	<g>
		<path fill="#FDF7F1" d="M368.725,551.902c0-5.248,4.254-9.498,9.497-9.498c5.247,0,9.496,4.25,9.496,9.498v166.827
			c31.039,15.981,65.918,25.531,102.884,26.938V254.335c-36.966,1.406-71.845,10.956-102.884,26.933v165.641
			c0,5.247-4.249,9.496-9.496,9.496c-5.243,0-9.497-4.249-9.497-9.496V292.154c-68.804,43.581-114.49,120.372-114.49,207.844
			c0,87.473,45.687,164.265,114.49,207.85V551.902z"/>
		<path fill="#FDF7F1" d="M622.153,509.495c-5.248,0-9.497-4.25-9.497-9.497c0-5.243,4.249-9.497,9.497-9.497h123.612
			c-4.872-128.229-107.937-231.294-236.17-236.166v491.332c128.233-4.872,231.298-107.938,236.17-236.172H622.153z"/>
	</g>
</g>
</svg>
